<?xml version="1.0" encoding="UTF-8" standalone="no"?>
<svg
   width="380.22437pt"
   height="508.759pt"
   version="1.1"
   viewBox="0 0 380.22437 508.759"
   id="svg1009"
   sodipodi:docname="Gimli.svg"
   inkscape:version="1.1.1 (c3084ef, 2021-09-22)"
   xmlns:inkscape="http://www.inkscape.org/namespaces/inkscape"
   xmlns:sodipodi="http://sodipodi.sourceforge.net/DTD/sodipodi-0.dtd"
   xmlns="http://www.w3.org/2000/svg"
   xmlns:svg="http://www.w3.org/2000/svg">
  <sodipodi:namedview
     id="namedview1011"
     pagecolor="#ffffff"
     bordercolor="#666666"
     borderopacity="1.0"
     inkscape:pageshadow="2"
     inkscape:pageopacity="0.0"
     inkscape:pagecheckerboard="0"
     inkscape:document-units="pt"
     showgrid="false"
     fit-margin-top="0"
     fit-margin-left="0"
     fit-margin-right="0"
     fit-margin-bottom="0"
     inkscape:zoom="0.73392857"
     inkscape:cx="265.01217"
     inkscape:cy="438.05353"
     inkscape:window-width="1536"
     inkscape:window-height="907"
     inkscape:window-x="0"
     inkscape:window-y="25"
     inkscape:window-maximized="1"
     inkscape:current-layer="svg1009" />
  <defs
     id="defs887">
    <symbol
       id="u"
       overflow="visible">
      <path
         d="M 9.375,-0.5625 C 8.89453,-0.3125 8.39062,-0.125 7.8594,0 7.33596,0.13281 6.7969,0.20312 6.2344,0.20312 c -1.7109,0 -3.0586,-0.47266 -4.0469,-1.4219 -0.99219,-0.95703 -1.4844,-2.25 -1.4844,-3.875 0,-1.6328 0.49219,-2.9258 1.4844,-3.875 0.98828,-0.94531 2.3359,-1.4219 4.0469,-1.4219 0.5625,0 1.1016,0.0625 1.625,0.1875 0.53125,0.125 1.0352,0.32031 1.5156,0.57812 v 2.1094 C 8.88281,-7.84769 8.39844,-8.09378 7.9219,-8.25004 7.45315,-8.40629 6.95706,-8.48442 6.4375,-8.48442 c -0.9375,0 -1.6797,0.30469 -2.2188,0.90625 -0.53125,0.60547 -0.79688,1.4336 -0.79688,2.4844 0,1.0547 0.26562,1.8828 0.79688,2.4844 0.53906,0.60547 1.2812,0.90625 2.2188,0.90625 0.51953,0 1.0156,-0.078125 1.4844,-0.23438 0.47656,-0.15625 0.96094,-0.39844 1.4531,-0.73438 z"
         id="path824" />
    </symbol>
    <symbol
       id="b"
       overflow="visible">
      <path
         d="M 6.8594,-5.5781 C 6.64846,-5.67185 6.43752,-5.73826 6.21878,-5.78122 6.00784,-5.832001 5.7969,-5.859345 5.57816,-5.859345 c -0.625,0 -1.1094,0.20312 -1.4531,0.60938 -0.33594,0.39844 -0.5,0.96875 -0.5,1.7188 v 3.5312 h -2.4531 v -7.6562 h 2.4531 v 1.25 c 0.3125,-0.5 0.67188,-0.86328 1.0781,-1.0938 0.40625,-0.22656 0.89453,-0.34375 1.4688,-0.34375 0.082031,0 0.17188,0.00781 0.26562,0.015625 0.09375,0 0.23438,0.015625 0.42188,0.046875 z"
         id="path827" />
    </symbol>
    <symbol
       id="a"
       overflow="visible">
      <path
         d="m 8.8125,-3.8438 v 0.6875 H 3.0937 c 0.0625,0.57422 0.26953,1.0078 0.625,1.2969 0.35156,0.29297 0.84766,0.4375 1.4844,0.4375 0.51953,0 1.0508,-0.078125 1.5938,-0.23438 0.53906,-0.15625 1.0938,-0.39062 1.6562,-0.70312 v 1.8906 c -0.57422,0.21875 -1.1523,0.38672 -1.7344,0.5 -0.57422,0.11328 -1.1523,0.17188 -1.7344,0.17188 -1.3867,0 -2.4648,-0.35156 -3.2344,-1.0625 -0.76172,-0.70703 -1.1406,-1.6953 -1.1406,-2.9688 0,-1.2383 0.375,-2.2188 1.125,-2.9375 0.75,-0.7187 1.7852,-1.0781 3.1094,-1.0781 1.207,0 2.1719,0.36719 2.8906,1.0938 0.71875,0.71875 1.0781,1.6875 1.0781,2.9062 z M 6.2969,-4.6563 c 0,-0.46875 -0.13672,-0.84375 -0.40625,-1.125 -0.27344,-0.28906 -0.625,-0.4375 -1.0625,-0.4375 -0.46875,0 -0.85547,0.13672 -1.1562,0.40625 -0.29297,0.26172 -0.47656,0.64844 -0.54688,1.1562 z"
         id="path830" />
    </symbol>
    <symbol
       id="e"
       overflow="visible">
      <path
         d="m 4.6094,-3.4531 c -0.51172,0 -0.89844,0.089844 -1.1562,0.26562 -0.26172,0.17969 -0.39062,0.43359 -0.39062,0.76562 0,0.3125 0.10156,0.55859 0.3125,0.73438 0.20703,0.17969 0.5,0.26562 0.875,0.26562 0.45703,0 0.84375,-0.16406 1.1562,-0.5 0.3125,-0.33203 0.46875,-0.75 0.46875,-1.25 V -3.45311 Z M 8.3438,-4.37498 V 2e-5 H 5.875 v -1.1406 c -0.32422,0.46875 -0.69531,0.8125 -1.1094,1.0312 -0.40625,0.20703 -0.90234,0.3125 -1.4844,0.3125 -0.80469,0 -1.4492,-0.22656 -1.9375,-0.6875 -0.49219,-0.46875 -0.73438,-1.0703 -0.73438,-1.8125 0,-0.89453 0.30469,-1.5508 0.92188,-1.9688 0.61328,-0.42578 1.582,-0.64062 2.9062,-0.64062 h 1.4375 v -0.1875 c 0,-0.38281 -0.15234,-0.66406 -0.45312,-0.84375 -0.30469,-0.1875 -0.77734,-0.28125 -1.4219,-0.28125 -0.53125,0 -1.0234,0.054688 -1.4688,0.15625 -0.44922,0.10547 -0.87109,0.26562 -1.2656,0.48438 v -1.875 c 0.53125,-0.125 1.0547,-0.21875 1.5781,-0.28125 0.53125,-0.070313 1.0625,-0.10938 1.5938,-0.10938 1.3828,0 2.3789,0.27734 2.9844,0.82812 0.61328,0.54297 0.92188,1.4219 0.92188,2.6406 z"
         id="path833" />
    </symbol>
    <symbol
       id="d"
       overflow="visible">
      <path
         d="m 3.8438,-9.8281 v 2.1719 H 6.375 v 1.75 H 3.8438 v 3.25 c 0,0.35547 0.066406,0.59375 0.20312,0.71875 0.14453,0.125 0.42969,0.1875 0.85938,0.1875 h 1.25 V 5e-5 H 4.0625 C 3.09375,5e-5 2.4063,-0.19526 2,-0.5937 1.60156,-0.99995 1.40625,-1.6875 1.40625,-2.6562 v -3.25 h -1.2188 v -1.75 h 1.2188 v -2.1719 z"
         id="path836" />
    </symbol>
    <symbol
       id="g"
       overflow="visible">
      <path
         d="m 6.3906,-6.5312 v -4.1094 H 8.8437 V 4e-4 H 6.3906 V -1.109 c -0.34375,0.44922 -0.71875,0.78125 -1.125,1 -0.40625,0.20703 -0.875,0.3125 -1.4062,0.3125 -0.9375,0 -1.7148,-0.375 -2.3281,-1.125 -0.60547,-0.75 -0.90625,-1.7188 -0.90625,-2.9062 0,-1.1758 0.30078,-2.1406 0.90625,-2.8906 0.61328,-0.75 1.3906,-1.125 2.3281,-1.125 0.53125,0 1,0.10938 1.4062,0.32812 0.40625,0.21094 0.78125,0.53906 1.125,0.98438 z m -1.625,4.9531 c 0.53125,0 0.92969,-0.19141 1.2031,-0.57812 0.28125,-0.38281 0.42188,-0.94141 0.42188,-1.6719 0,-0.72656 -0.14062,-1.2812 -0.42188,-1.6562 -0.27344,-0.38281 -0.67188,-0.57812 -1.2031,-0.57812 -0.51172,0 -0.90625,0.19531 -1.1875,0.57812 -0.27344,0.375 -0.40625,0.92969 -0.40625,1.6562 0,0.73047 0.13281,1.2891 0.40625,1.6719 0.28125,0.38672 0.67578,0.57812 1.1875,0.57812 z"
         id="path839" />
    </symbol>
    <symbol
       id="k"
       overflow="visible">
      <path
         d="m 5.25,-1.5781 c 0.51953,0 0.91406,-0.19141 1.1875,-0.57812 0.28125,-0.38281 0.42188,-0.94141 0.42188,-1.6719 0,-0.72656 -0.14062,-1.2812 -0.42188,-1.6562 C 6.16406,-5.86713 5.76953,-6.06244 5.25,-6.06244 c -0.52344,0 -0.92188,0.19531 -1.2031,0.57812 -0.28125,0.38672 -0.42188,0.9375 -0.42188,1.6562 0,0.73047 0.14062,1.2891 0.42188,1.6719 C 4.32815,-1.7695 4.72659,-1.5781 5.25,-1.5781 Z M 3.625,-6.5312 c 0.33203,-0.44531 0.70312,-0.77344 1.1094,-0.98438 0.41406,-0.21875 0.89062,-0.32812 1.4219,-0.32812 0.94531,0 1.7227,0.375 2.3281,1.125 0.60156,0.75 0.90625,1.7148 0.90625,2.8906 0,1.1875 -0.30469,2.1562 -0.90625,2.9062 -0.60547,0.75 -1.3828,1.125 -2.3281,1.125 -0.53125,0 -1.0078,-0.10547 -1.4219,-0.3125 -0.40625,-0.21875 -0.77734,-0.55078 -1.1094,-1 V 0 H 1.1719 V -10.641 H 3.625 Z"
         id="path842" />
    </symbol>
    <symbol
       id="j"
       overflow="visible">
      <path
         d="m 0.17188,-7.6562 h 2.4531 l 2.0469,5.1875 1.75,-5.1875 h 2.4531 l -3.2188,8.375 C 5.33196,1.57036 4.95306,2.1641 4.51558,2.5 4.08589,2.84375 3.51949,3.01562 2.81248,3.01562 H 1.40628 V 1.42182 H 2.1719 c 0.41406,0 0.71875,-0.070313 0.90625,-0.20312 0.1875,-0.13672 0.33203,-0.375 0.4375,-0.71875 l 0.0625,-0.20312 z"
         id="path845" />
    </symbol>
    <symbol
       id="i"
       overflow="visible">
      <path
         d="m 1.2812,-10.203 h 3.3594 l 2.3125,5.4531 2.3438,-5.4531 h 3.3438 V 0 h -2.4844 v -7.4688 l -2.3594,5.5 H 6.125 l -2.3438,-5.5 V 0 h -2.5 z"
         id="path848" />
    </symbol>
    <symbol
       id="h"
       overflow="visible">
      <path
         d="m 7.3594,-7.4219 v 2 c -0.33594,-0.22656 -0.66797,-0.39453 -1,-0.5 -0.33594,-0.11328 -0.68359,-0.17188 -1.0469,-0.17188 -0.67969,0 -1.2109,0.20312 -1.5938,0.60938 -0.375,0.39844 -0.5625,0.94922 -0.5625,1.6562 0,0.71875 0.1875,1.2812 0.5625,1.6875 0.38281,0.39844 0.91406,0.59375 1.5938,0.59375 0.38281,0 0.75,-0.054687 1.0938,-0.17188 0.34375,-0.11328 0.66016,-0.28516 0.95312,-0.51562 v 2.0156 C 6.9727,-0.08213 6.58208,0.01943 6.18752,0.09365 5.8008,0.163962 5.41018,0.20303 5.01562,0.20303 c -1.3867,0 -2.4688,-0.35156 -3.25,-1.0625 -0.77344,-0.70703 -1.1562,-1.6953 -1.1562,-2.9688 0,-1.2578 0.38281,-2.2422 1.1562,-2.9531 0.78125,-0.70703 1.8633,-1.0625 3.25,-1.0625 0.39453,0 0.78516,0.039062 1.1719,0.10938 0.39453,0.074219 0.78516,0.17969 1.1719,0.3125 z"
         id="path851" />
    </symbol>
    <symbol
       id="c"
       overflow="visible">
      <path
         d="m 4.8125,-6.0938 c -0.54297,0 -0.95312,0.19922 -1.2344,0.59375 -0.28125,0.38672 -0.42188,0.94531 -0.42188,1.6719 0,0.74219 0.14062,1.3086 0.42188,1.7031 0.28125,0.38672 0.69141,0.57812 1.2344,0.57812 0.53906,0 0.95312,-0.19141 1.2344,-0.57812 0.28125,-0.39453 0.42188,-0.96094 0.42188,-1.7031 0,-0.72656 -0.14062,-1.2852 -0.42188,-1.6719 C 5.76565,-5.89458 5.35159,-6.0938 4.8125,-6.0938 Z m 0,-1.75 c 1.3203,0 2.3516,0.35938 3.0938,1.0781 0.73828,0.71094 1.1094,1.6875 1.1094,2.9375 0,1.2617 -0.37109,2.25 -1.1094,2.9688 C 7.16411,-0.14846 6.1329,0.2031 4.8125,0.2031 3.5,0.2031 2.4687,-0.14846 1.7187,-0.8594 0.97651,-1.57815 0.6093,-2.5664 0.6093,-3.8282 c 0,-1.25 0.36719,-2.2266 1.1094,-2.9375 0.75,-0.71875 1.7812,-1.0781 3.0938,-1.0781 z"
         id="path854" />
    </symbol>
    <symbol
       id="t"
       overflow="visible">
      <path
         d="m 1.2812,-10.203 h 2.6406 v 3.8906 h 3.875 v -3.8906 h 2.6406 V 0 H 7.7968 V -4.3281 H 3.9218 V 0 H 1.2812 Z"
         id="path857" />
    </symbol>
    <symbol
       id="f"
       overflow="visible">
      <path
         d="M 8.875,-4.6562 V 0 H 6.4062 v -3.5625 c 0,-0.66406 -0.015625,-1.125 -0.046875,-1.375 -0.023437,-0.25 -0.070313,-0.42969 -0.14062,-0.54688 -0.09375,-0.16406 -0.22656,-0.28906 -0.39062,-0.375 C 5.660115,-5.95313 5.472615,-6 5.265585,-6 c -0.51172,0 -0.91406,0.19922 -1.2031,0.59375 -0.29297,0.39844 -0.4375,0.94531 -0.4375,1.6406 V -5e-5 h -2.4531 v -7.6562 h 2.4531 v 1.125 c 0.36328,-0.44531 0.75391,-0.77344 1.1719,-0.98438 0.41406,-0.21875 0.875,-0.32812 1.375,-0.32812 0.88281,0 1.5547,0.27344 2.0156,0.8125 0.45703,0.54297 0.6875,1.3359 0.6875,2.375 z"
         id="path860" />
    </symbol>
    <symbol
       id="s"
       overflow="visible">
      <path
         d="m 0.79688,-7.6562 h 6.6875 v 1.7031 L 3.45318,-1.75 h 4.0312 V 0 h -6.8594 v -1.7031 l 4.0312,-4.2031 h -3.8594 z"
         id="path863" />
    </symbol>
    <symbol
       id="r"
       overflow="visible">
      <path
         d="m 6.2188,-10.641 v 1.6094 H 4.8594 c -0.34375,0 -0.58594,0.0625 -0.71875,0.1875 -0.13672,0.125 -0.20312,0.34375 -0.20312,0.65625 v 0.53125 h 2.0781 v 1.75 H 3.93753 V -4e-4 h -2.4531 v -5.9062 h -1.2188 v -1.75 h 1.2188 v -0.53125 c 0,-0.83203 0.22656,-1.4453 0.6875,-1.8438 0.46875,-0.40625 1.1914,-0.60938 2.1719,-0.60938 z"
         id="path866" />
    </symbol>
    <symbol
       id="q"
       overflow="visible">
      <path
         d="m 8.2656,-6.3906 c 0.3125,-0.46875 0.67969,-0.82812 1.1094,-1.0781 0.42578,-0.25 0.89453,-0.375 1.4062,-0.375 0.875,0 1.5391,0.27344 2,0.8125 0.46875,0.54297 0.70312,1.3359 0.70312,2.375 V 0 h -2.4688 v -4 c 0.0078,-0.050781 0.01563,-0.10938 0.01563,-0.17188 v -0.28125 c 0,-0.53906 -0.07813,-0.92969 -0.23438,-1.1719 -0.15625,-0.25 -0.41797,-0.375 -0.78125,-0.375 -0.46094,0 -0.82031,0.19531 -1.0781,0.57812 -0.25,0.38672 -0.38281,0.9375 -0.39062,1.6562 v 3.7656 h -2.4531 v -4 c 0,-0.84375 -0.074219,-1.3828 -0.21875,-1.625 -0.14844,-0.25 -0.40625,-0.375 -0.78125,-0.375 -0.46875,0 -0.83594,0.19531 -1.0938,0.57812 -0.25,0.38672 -0.375,0.9375 -0.375,1.6562 v 3.7656 h -2.4688 v -7.6562 h 2.4688 v 1.125 c 0.30078,-0.4375 0.64453,-0.76562 1.0312,-0.98438 0.39453,-0.21875 0.82812,-0.32812 1.2969,-0.32812 0.51953,0 0.98438,0.13281 1.3906,0.39062 0.40625,0.25 0.71094,0.60547 0.92188,1.0625 z"
         id="path869" />
    </symbol>
    <symbol
       id="p"
       overflow="visible">
      <path
         d="M 8.875,-4.6562 V 0 H 6.4062 v -3.5625 c 0,-0.66406 -0.015625,-1.125 -0.046875,-1.375 -0.023437,-0.25 -0.070313,-0.42969 -0.14062,-0.54688 -0.09375,-0.16406 -0.22656,-0.28906 -0.39062,-0.375 C 5.660115,-5.95313 5.472615,-6 5.265585,-6 c -0.51172,0 -0.91406,0.19922 -1.2031,0.59375 -0.29297,0.39844 -0.4375,0.94531 -0.4375,1.6406 V -5e-5 h -2.4531 v -10.641 h 2.4531 v 4.1094 c 0.36328,-0.44531 0.75391,-0.77344 1.1719,-0.98438 0.41406,-0.21875 0.875,-0.32812 1.375,-0.32812 0.88281,0 1.5547,0.27344 2.0156,0.8125 0.45703,0.54297 0.6875,1.3359 0.6875,2.375 z"
         id="path872" />
    </symbol>
    <symbol
       id="o"
       overflow="visible">
      <path
         d="m 1.2812,-10.203 h 2.9375 l 3.7188,7 v -7 h 2.5 V 0 H 7.5 L 3.7812,-7 v 7 h -2.5 z"
         id="path875" />
    </symbol>
    <symbol
       id="n"
       overflow="visible">
      <path
         d="m 1.0938,-2.9844 v -4.6719 h 2.4688 v 0.76562 c 0,0.41797 -0.00781,0.9375 -0.015625,1.5625 v 1.25 c 0,0.61719 0.015625,1.0586 0.046875,1.3281 0.03125,0.27344 0.082031,0.46875 0.15625,0.59375 0.10156,0.15625 0.23438,0.28125 0.39062,0.375 0.16406,0.085938 0.35156,0.125 0.5625,0.125 0.50781,0 0.91016,-0.19141 1.2031,-0.57812 0.28906,-0.39453 0.4375,-0.94141 0.4375,-1.6406 v -3.7812 h 2.4531 V -5e-5 h -2.4531 v -1.1094 c -0.36719,0.44922 -0.75781,0.78125 -1.1719,1 -0.41797,0.20703 -0.87109,0.3125 -1.3594,0.3125 -0.88672,0 -1.5625,-0.26953 -2.0312,-0.8125 -0.46094,-0.53906 -0.6875,-1.332 -0.6875,-2.375 z"
         id="path878" />
    </symbol>
    <symbol
       id="m"
       overflow="visible">
      <path
         d="m 1.2812,-10.203 h 4.375 c 1.3008,0 2.2969,0.28906 2.9844,0.85938 0.69531,0.57422 1.0469,1.3984 1.0469,2.4688 0,1.0742 -0.35156,1.8984 -1.0469,2.4688 C 7.9531,-3.8318 6.957,-3.54664 5.6562,-3.54664 H 3.9218 V 2.6e-4 H 1.2812 Z m 2.6406,1.9062 v 2.8438 h 1.4531 c 0.50781,0 0.89844,-0.11719 1.1719,-0.35938 0.28125,-0.25 0.42188,-0.60156 0.42188,-1.0625 0,-0.45703 -0.14062,-0.80469 -0.42188,-1.0469 -0.27344,-0.25 -0.66406,-0.375 -1.1719,-0.375 z"
         id="path881" />
    </symbol>
    <symbol
       id="l"
       overflow="visible">
      <path
         d="M 1.1719,-7.6562 H 3.625 v 7.5156 c 0,1.0312 -0.25,1.8125 -0.75,2.3438 C 2.38281,2.74226 1.6758,3.0157 0.75,3.0157 H -0.4688 V 1.4219 h 0.42188 c 0.46875,0 0.78516,-0.10938 0.95312,-0.32812 0.17578,-0.21094 0.26562,-0.62109 0.26562,-1.2344 z m 0,-2.9844 H 3.625 v 2 H 1.1719 Z"
         id="path884" />
    </symbol>
  </defs>
  <path
     d="M 86.552274,140.56 H 290.95227 v 19.602 H 86.552274 Z"
     id="path889" />
  <path
     d="m 90.752274,165.76 -26.879,63.84 33.32,28.84 11.757996,-29.961 c -23.519996,-19.32 -8.1172,-62.719 -8.1172,-62.719 z"
     id="path891" />
  <path
     d="m 268.55227,228.48 11.762,29.961 33.32,-28.84 -26.883,-63.84 h -10.078 c 0,0 15.398,43.398 -8.1211,62.719 z"
     id="path893" />
  <path
     d="m 305.23227,179.48 c 0,0 1.6797,8.6797 5.0391,-0.55859 3.6406,-9.2383 8.3984,-6.7188 12.879,0.55859 4.7617,7.2812 -2.5195,6.1602 -8.3984,7.8398 -5.8789,1.6797 -8.3984,11.48 1.1211,19.039 9.2383,7.8398 22.121,-18.199 15.961,-39.199 -6.1602,-21.281 -23.238,-13.441 -24.922,-8.6797 -1.6797,4.7617 5.0391,3.0781 -3.0781,9.2383 -7.8398,5.8828 1.3984,11.762 1.3984,11.762 z"
     id="path895" />
  <path
     d="m 69.192274,206.36 c 9.2383,-7.8398 6.7188,-17.641 1.1211,-19.039 -5.6016,-1.6797 -12.879,-0.55859 -8.3984,-7.8398 4.4806,-7.28121 9.2383,-9.8008 12.879,-0.55859 3.6406,9.2383 5.0391,0.55859 5.0391,0.55859 0,0 9.2383,-5.6016 1.1211,-11.762 -8.3984,-6.1602 -1.6797,-4.7617 -3.0781,-9.2383 -1.3984,-4.4805 -18.48,-12.32 -24.922,8.6797 -5.8828,21 6.9961,46.762 16.238,39.199 z"
     id="path897" />
  <path
     d="m 299.91227,390.04 29.398,2.5195 c 0,0 14,-17.922 -2.5195,-40.879 -16.52,-22.961 16.52,17.922 15.398,28 -1.3984,10.078 24.359,-45.922 -5.0391,-66.359 0,0 10.078,-11.48 17.922,0 0,0 0,-80.359 -21.559,-72.801 -21.559,7.5586 -43.398,36.961 -44.801,49.84 -1.3984,12.879 -8.9609,-3.9219 -20.441,-15.398 -11.48,-11.48 -36.961,-40.879 -75.32,-12.879 0,0 -15.398,2.5195 -19.039,-3.9219 -3.9219,-6.4414 -6.4414,0 -17.922,-3.9219 -11.4806,-3.9219 -49.84,8.9609 -59.921996,34.441 l -8.3984,-11.48 -14.84,10.078 v -20.441 l -6.1602,-10.078 c 0,0 -27.441,2.5195 -33.879,30.52 0,0 8.1211,-3.9219 22.121,3.9219 0,0 -30.52,-7.5586 -20.16,40.879 0,0 2.5195,-22.961 17.922,-25.48 0,0 -24.078,43.398 -8.9609,63.84 l 5.0391,8.9609 7.5586,-20.441 5.0391,31.922 c 0,0 11.48,11.48 19.039,1.3984 7.5586,-10.078 9.5195,8.3984 9.5195,8.3984 0,0 38.640996,-34.719 41.159996,-42.559 2.5195,-7.8398 5.3203,12.602 5.3203,12.602 l 15.398,-15.398 3.9219,10.078 12.879,-8.9609 10.078,8.9609 10.078,-10.078 14,8.9609 7.5586,-7.5586 26.879,14 2.5195,-10.078 c 0,0 49.84,36.961 54.879,40.879 5.332,3.918 5.332,-11.484 5.332,-11.484 z m -113.68,-72.801 c 0,0 -2.5195,-15.398 -17.922,-15.398 0,0 36.961,-3.9219 45.922,2.5195 0.28125,0.28125 -29.121,4.1992 -28,12.879 z m 40.879,-33.039 c -16.52,-3.9219 -8.9609,12.879 -8.9609,12.879 -24.359,-16.52 -61.32,-5.0391 -61.32,-5.0391 -12.879,3.9219 -14,-5.0391 -14,-5.0391 -3.9219,-8.9609 -11.48,0 -11.48,0 0,-15.398 19.039,-10.078 24.359,-17.922 3.6406,-5.6016 10.922,3.9219 14.559,9.2383 -1.1211,-5.3203 8.3984,-8.1211 8.3984,-8.1211 -5.0391,2.5195 5.0391,10.078 5.0391,10.078 l 10.078,-2.5195 c 0,-12.879 12.879,-11.48 12.879,-11.48 -12.879,3.9219 -1.3984,10.078 -1.3984,10.078 l 17.922,-3.9219 c 0.008,0.28906 20.445,15.691 3.9258,11.77 z"
     id="path899" />
  <path
     d="m 200.23227,94.08 c 0,6.3398 -5.1406,11.477 -11.48,11.477 -6.3398,0 -11.48,-5.1367 -11.48,-11.477 0,-6.3438 5.1406,-11.48 11.48,-11.48 6.3398,0 11.48,5.1367 11.48,11.48"
     id="path901" />
  <path
     d="m 145.63227,70.84 c -28.84,10.641 -48.999996,30.52 -50.956996,55.719 h 66.921996 c 1.957,-11.199 3.3555,-32.477 -15.965,-55.719 z"
     id="path903" />
  <path
     d="m 288.15227,126.56 c -1.9609,-25.199 -23.801,-46.762 -54.879,-57.121 -20.441,23.801 -19.32,45.922 -16.801,57.121 z"
     id="path905" />
  <path
     d="m 173.35227,113.12 v 13.438 h 26.879 l -1.9609,-14.281 c 0,0.004 -13.719,5.8828 -24.918,0.84375 z"
     id="path907" />
  <path
     d="m 205.55227,87.64 c 7.5586,-16.52 8.9609,-29.398 8.9609,-29.398 -29.398,19.039 -50.961,1.3984 -50.961,1.3984 l 6.4414,31.922 c 12.598,-31.922 35.559,-3.9219 35.559,-3.9219 z"
     id="path909" />
  <path
     d="m 185.11227,0 -15.398,50.961 h 30.52 z"
     id="path911" />
  <path
     d="m 91.872274,409.36 c -50.961,0 -57.398,-30.801 -57.398,-30.801 -8.9609,-8.9609 -6.4414,12.879 -6.4414,12.879 -6.4414,-5.0391 -1.3984,6.4414 -1.3984,6.4414 3.9219,15.398 43.398,34.441 57.398,33.039 14,-1.3984 5.0391,-10.078 5.0391,-10.078 7.8398,-2.8008 2.8008,-11.48 2.8008,-11.48 z"
     id="path913" />
  <path
     d="m 20.472274,415.52 c 0,0 -26.8789998,14 -19.0389998,47.32 0,0 3.9219,-16.52 13.9999998,-17.922 10.078,-1.3984 -24.3589998,21.559 -10.0779998,49.84 0,0 8.9608998,-34.441 22.9609998,-34.441 0,0 0,33.039 -25.4799998,48.441 0,0 40.8789998,-20.441 44.8009998,-38.359 0,0 2.5195,12.879 -16.52,26.879 0,0 47.32,-7.5586 50.961,-52.359 -0.28906,0.004 -32.207,1.4023 -61.605,-29.398 z"
     id="path915" />
  <path
     d="m 353.39227,397.88 c 0,0 5.0391,-11.48 -1.3984,-6.4414 0,0 2.5195,-21.559 -6.4414,-12.879 0,0 -6.4414,30.52 -57.398,30.52 0,0 -5.0391,8.9609 2.5195,11.48 0,0 -8.9609,8.9609 5.0391,10.078 14.281,1.6836 54.039,-17.637 57.68,-32.758 z"
     id="path917" />
  <path
     d="m 364.87227,444.92 c 10.078,1.3984 14,17.922 14,17.922 7.5586,-33.039 -19.039,-47.32 -19.039,-47.32 -29.398,30.52 -61.32,29.398 -61.32,29.398 3.9219,44.801 50.961,52.359 50.961,52.359 -19.039,-14 -16.52,-26.879 -16.52,-26.879 3.9219,17.922 44.801,38.359 44.801,38.359 -25.48,-15.398 -25.48,-48.441 -25.48,-48.441 14,0 22.961,34.441 22.961,34.441 13.996,-28 -20.445,-50.961 -10.363,-49.84 z"
     id="path919" />
  <path
     d="m 167.19227,216.44 c -29.121,15.121 -33.039,1.1211 -43.398,-2.2383 0,0 10.078,24.078 41.719,7.8398 l 3.9219,28.559 11.762,-10.078 5.6016,-47.879 -11.766,-1.6836 4.4805,-3.0781 -4.4805,-1.6797 -21.281,-2.5195 -17.922,-19.602 -19.879,8.1211 7,1.957 -5.8789,9.2383 8.3984,-7.2812 21.84,17.922 2.5195,0.28125 c -1.9609,0.83984 -3.3594,2.8008 -3.3594,5.3203 0,2.8008 2.2383,5.3203 5.0391,5.6016 h -1.9609 l -15.398,-7 15.121,11.48 19.039,-5.3203 -14.836,0.55859 c 2.5195,-0.55859 4.4805,-2.8008 4.4805,-5.6016 0,-1.9609 -0.83984,-3.6406 -2.2383,-4.4805 l 12.602,1.3984 3.0781,-2.2383 c 7.2773,4.4805 14.277,12.602 -4.2031,22.402 z"
     id="path921" />
  <path
     d="m 248.39227,164.08 -17.922,19.602 -21.281,2.5195 -4.4805,1.6797 4.1992,3.0781 -13.16,1.3984 5.6016,47.879 11.762,10.078 3.9219,-28.559 c 31.922,16.238 41.719,-7.8398 41.719,-7.8398 -10.641,3.3594 -14.559,17.359 -43.398,2.2383 -19.32,-10.078 -10.922,-18.48 -3.0781,-23.238 l 3.9219,2.8008 12.602,-1.3984 c -1.3984,1.1211 -2.2383,2.8008 -2.2383,4.4805 0,2.8008 1.9609,5.0391 4.4805,5.6016 l -14.559,-0.55859 19.039,5.3203 15.121,-11.48 -15.398,7 h -1.9609 c 2.8008,-0.28125 5.0391,-2.8008 5.0391,-5.6016 0,-2.2383 -1.3984,-4.1992 -3.3594,-5.3203 l 2.5195,-0.28125 21.84,-17.922 8.3984,7.2812 -5.8789,-9.2383 7.2812,-2.2383 z"
     id="path923" />
</svg>
