<?xml version="1.0" standalone="no"?><!-- Generator: Gravit.io --><svg xmlns="http://www.w3.org/2000/svg" xmlns:xlink="http://www.w3.org/1999/xlink" style="isolation:isolate" viewBox="0 0 112 112" width="112" height="112"><defs><clipPath id="_clipPath_qPcH2TsIIFPcHxHqAXpFmK1rMonXHVRG"><rect width="112" height="112"/></clipPath></defs><g clip-path="url(#_clipPath_qPcH2TsIIFPcHxHqAXpFmK1rMonXHVRG)"><path d=" M 97.124 86.309 L 97.124 13.89 C 97.124 8.845 94.001 1.341 85.395 1.341 L 18.452 1.341 C 17.247 1.25 12.813 1.214 8.618 4.925 C 3.62 9.346 1.086 17.176 1.086 28.204 L 1.086 31.611 L 14.707 31.611 L 14.707 99.4 C 14.707 103.447 15.798 106.542 17.952 108.595 C 19.655 110.218 21.507 110.691 22.588 110.823 L 22.588 110.879 L 93.974 110.879 C 107.442 110.879 111 97.019 111 89.69 L 111 86.276 L 97.124 86.309 Z  M 7.99 24.799 C 8.474 16.537 10.7 12.454 12.702 10.433 C 13.666 11.194 14.707 13.164 14.707 17.364 L 14.707 24.799 L 7.99 24.799 Z  M 28.516 89.878 C 28.516 100.6 25.348 103.808 23.343 104.05 C 22.481 103.891 21.516 102.596 21.516 99.399 L 21.516 17.364 C 21.516 13.261 20.674 10.271 19.448 8.128 L 85.395 8.151 C 89.879 8.151 90.293 12.561 90.311 13.89 L 90.311 86.328 L 28.516 86.482 L 28.516 89.878 Z  M 93.974 104.066 L 32.718 104.066 C 33.967 101.526 34.917 98.044 35.223 93.273 L 103.882 93.103 C 103.204 97.361 101.015 104.066 93.974 104.066 Z  M 61.745 22.77 L 83.015 22.77 L 83.015 29.581 L 61.745 29.581 L 61.745 22.77 Z  M 61.745 37.905 L 83.015 37.905 L 83.015 44.714 L 61.745 44.714 L 61.745 37.905 Z  M 61.745 52.684 L 83.015 52.684 L 83.015 59.493 L 61.745 59.493 L 61.745 52.684 Z  M 32.718 68.208 L 83.307 68.208 L 83.307 75.019 L 32.718 75.019 L 32.718 68.208 Z  M 52.737 42.621 C 52.737 43.488 52.606 44.359 52.346 45.207 C 52.08 46.083 51.629 46.902 51.008 47.641 C 50.396 48.371 49.592 49.009 48.621 49.53 C 47.814 49.962 46.848 50.297 45.745 50.525 L 45.745 55.501 L 39.209 55.501 L 39.209 50.704 C 37.528 50.528 36.116 50.234 35.004 49.831 C 33.759 49.381 32.854 49.013 32.24 48.703 L 31.627 48.396 L 33.869 42.397 L 34.625 42.763 C 35.51 43.194 36.586 43.593 37.821 43.948 C 39.03 44.298 40.329 44.475 41.682 44.475 C 43.573 44.475 44.29 44.156 44.548 43.966 C 44.945 43.676 45.13 43.285 45.13 42.734 C 45.13 42.383 45.055 42.099 44.901 41.866 C 44.724 41.599 44.45 41.345 44.089 41.113 C 43.681 40.848 43.149 40.582 42.507 40.324 C 41.829 40.049 41.045 39.756 40.157 39.442 C 39.26 39.115 38.378 38.754 37.528 38.363 C 36.641 37.955 35.824 37.446 35.098 36.85 C 34.341 36.226 33.728 35.456 33.273 34.557 C 32.808 33.646 32.573 32.548 32.573 31.291 C 32.573 30.344 32.712 29.416 32.985 28.54 C 33.265 27.644 33.704 26.818 34.291 26.084 C 34.882 25.346 35.656 24.713 36.588 24.204 C 37.344 23.79 38.225 23.466 39.211 23.238 L 39.211 18.804 L 45.746 18.804 L 45.746 23.013 C 46.871 23.146 47.874 23.33 48.736 23.557 C 49.76 23.831 50.596 24.111 51.219 24.395 L 51.805 24.659 L 50.189 30.909 L 49.373 30.562 C 48.545 30.212 47.563 29.903 46.46 29.65 C 45.367 29.399 44.201 29.272 42.995 29.272 C 41.632 29.272 41.003 29.534 40.716 29.751 C 40.346 30.033 40.181 30.359 40.181 30.811 C 40.181 31.099 40.235 31.342 40.34 31.528 C 40.45 31.722 40.64 31.907 40.904 32.075 C 41.234 32.289 41.655 32.5 42.154 32.708 C 42.686 32.931 43.328 33.17 44.079 33.429 C 45.281 33.868 46.399 34.351 47.414 34.863 C 48.462 35.397 49.385 36.016 50.159 36.705 C 50.961 37.419 51.597 38.268 52.051 39.233 C 52.505 40.211 52.737 41.348 52.737 42.621 Z " fill="rgb(0,0,0)"/></g></svg>