<?xml version="1.0" standalone="no"?><!-- Generator: Gravit.io --><svg xmlns="http://www.w3.org/2000/svg" xmlns:xlink="http://www.w3.org/1999/xlink" style="isolation:isolate" viewBox="0 0 112 112" width="112" height="112"><defs><clipPath id="_clipPath_5mbryNKq1bworcu9kfqK4NOvRyt3p6EM"><rect width="112" height="112"/></clipPath></defs><g clip-path="url(#_clipPath_5mbryNKq1bworcu9kfqK4NOvRyt3p6EM)"><path d=" M 100.762 71.88 L 110 26.69 L 22.187 14.948 L 15.154 10.258 C 15.275 9.754 15.463 9.277 15.463 8.735 C 15.463 5.013 12.448 2 8.731 2 C 5.015 2 2 5.011 2 8.735 C 2 12.451 5.015 15.463 8.731 15.463 C 9.204 15.463 9.622 15.286 10.067 15.192 L 18.328 20.705 L 32.035 74.77 L 36.193 74.594 L 32.465 86.367 C 32.319 86.36 32.184 86.324 32.035 86.324 C 25.656 86.324 20.485 91.494 20.485 97.877 C 20.485 104.253 25.656 109.423 32.035 109.423 C 36.769 109.423 40.826 106.568 42.611 102.493 L 79.107 102.493 C 80.803 106.561 84.816 109.423 89.5 109.423 C 95.72 109.423 100.762 104.381 100.762 98.161 C 100.762 91.941 95.72 86.899 89.5 86.899 C 84.18 86.899 79.747 90.601 78.568 95.562 L 43.351 95.562 C 42.783 92.767 41.182 90.374 38.992 88.709 L 43.557 74.287 L 100.762 71.88 Z  M 54.644 65.702 C 52.368 65.702 50.515 63.855 50.515 61.573 C 50.515 59.291 52.366 57.444 54.644 57.444 C 56.924 57.444 58.777 59.291 58.777 61.573 C 58.777 63.855 56.924 65.702 54.644 65.702 Z  M 68.505 65.702 C 66.229 65.702 64.376 63.855 64.376 61.573 C 64.376 59.291 66.227 57.444 68.505 57.444 C 70.785 57.444 72.638 59.291 72.638 61.573 C 72.638 63.855 70.785 65.702 68.505 65.702 Z  M 82.366 65.702 C 80.09 65.702 78.237 63.855 78.237 61.573 C 78.237 59.291 80.088 57.444 82.366 57.444 C 84.646 57.444 86.499 59.291 86.499 61.573 C 86.499 63.855 84.646 65.702 82.366 65.702 Z  M 96.227 29.722 C 98.507 29.722 100.36 31.569 100.36 33.851 C 100.36 36.133 98.509 37.98 96.227 37.98 C 93.951 37.98 92.098 36.133 92.098 33.851 C 92.098 31.569 93.949 29.722 96.227 29.722 Z  M 93.429 47.712 C 93.429 49.992 91.579 51.841 89.297 51.841 C 87.02 51.841 85.168 49.994 85.168 47.712 C 85.168 45.43 87.018 43.583 89.297 43.583 C 91.577 43.583 93.429 45.43 93.429 47.712 Z  M 82.366 29.722 C 84.646 29.722 86.499 31.569 86.499 33.851 C 86.499 36.133 84.648 37.98 82.366 37.98 C 80.09 37.98 78.237 36.133 78.237 33.851 C 78.237 31.569 80.088 29.722 82.366 29.722 Z  M 79.568 47.712 C 79.568 49.992 77.718 51.841 75.436 51.841 C 73.159 51.841 71.307 49.994 71.307 47.712 C 71.307 45.43 73.157 43.583 75.436 43.583 C 77.716 43.583 79.568 45.43 79.568 47.712 Z  M 68.505 29.722 C 70.785 29.722 72.638 31.569 72.638 33.851 C 72.638 36.133 70.787 37.98 68.505 37.98 C 66.229 37.98 64.376 36.133 64.376 33.851 C 64.376 31.569 66.227 29.722 68.505 29.722 Z  M 65.707 47.712 C 65.707 49.992 63.857 51.841 61.575 51.841 C 59.298 51.841 57.446 49.994 57.446 47.712 C 57.446 45.43 59.296 43.583 61.575 43.583 C 63.855 43.583 65.707 45.43 65.707 47.712 Z  M 54.644 29.722 C 56.924 29.722 58.777 31.569 58.777 33.851 C 58.777 36.133 56.926 37.98 54.644 37.98 C 52.368 37.98 50.515 36.133 50.515 33.851 C 50.515 31.569 52.366 29.722 54.644 29.722 Z  M 51.846 47.712 C 51.846 49.992 49.996 51.841 47.714 51.841 C 45.437 51.841 43.585 49.994 43.585 47.712 C 43.585 45.43 45.435 43.583 47.714 43.583 C 49.994 43.583 51.846 45.43 51.846 47.712 Z  M 36.654 33.851 C 36.654 31.571 38.505 29.722 40.783 29.722 C 43.063 29.722 44.916 31.569 44.916 33.851 C 44.916 36.133 43.065 37.98 40.783 37.98 C 38.505 37.98 36.654 36.131 36.654 33.851 Z " fill="rgb(0,0,0)"/></g></svg>