<?xml version="1.0" standalone="no"?><!-- Generator: Gravit.io --><svg xmlns="http://www.w3.org/2000/svg" xmlns:xlink="http://www.w3.org/1999/xlink" style="isolation:isolate" viewBox="0 0 112 112" width="112" height="112"><defs><clipPath id="_clipPath_DJw1pZifMzoHWcXZ1s56FSRZEehoTABS"><rect width="112" height="112"/></clipPath></defs><g clip-path="url(#_clipPath_DJw1pZifMzoHWcXZ1s56FSRZEehoTABS)"><path d=" M 54.687 45.933 L 54.687 111.194 L 14.432 99.652 L 14.432 66.401 L 45.903 68.203 L 54.687 45.933 L 54.687 45.933 Z " fill-rule="evenodd" fill="rgb(0,0,0)"/><path d=" M 95.637 44.443 L 57.863 42.137 L 67.226 66.112 L 105 63.806 L 95.637 44.443 L 95.637 44.443 Z " fill-rule="evenodd" fill="rgb(0,0,0)"/><path d=" M 57.313 45.933 L 66.097 68.203 L 97.566 66.401 L 97.566 99.652 L 57.313 111.194 L 57.313 45.933 L 57.313 45.933 Z " fill-rule="evenodd" fill="rgb(0,0,0)"/><path d=" M 16.361 44.443 L 7 63.806 L 44.776 66.112 L 54.135 42.137 L 16.361 44.443 Z " fill-rule="evenodd" fill="rgb(0,0,0)"/><path d=" M 65.061 22.626 C 65.061 26.294 62.326 28.522 58.313 29.039 L 58.313 32.57 L 54.569 32.57 L 54.569 29.001 C 50.751 28.485 48.498 26.256 47.452 23.993 L 53.33 21.351 C 54.041 22.967 54.865 23.308 55.69 23.308 C 56.4 23.308 57.187 22.967 57.187 21.937 C 57.187 18.68 48.57 17.44 48.57 10.61 C 48.57 7.763 50.746 5.221 54.564 4.57 L 54.564 1 L 58.311 1 L 58.311 4.533 C 62.051 4.945 64.046 6.696 65.279 8.961 L 60.182 11.398 C 59.622 10.436 59.024 9.58 57.938 9.58 C 56.815 9.58 56.059 9.923 56.059 11.294 C 56.07 13.635 65.061 15.451 65.061 22.626 Z " fill="rgb(0,0,0)"/><path d=" M 37.46 29.713 C 37.46 28.343 38.216 27.998 39.34 27.998 C 40.425 27.998 41.023 28.853 41.583 29.817 L 46.681 27.38 C 45.447 25.115 43.454 23.363 39.712 22.952 L 39.712 19.419 L 35.966 19.419 L 35.966 22.989 C 32.148 23.639 29.972 26.181 29.972 29.029 C 29.972 35.859 38.588 37.098 38.588 40.356 C 38.588 40.588 38.543 40.782 38.473 40.948 L 46.417 40.463 C 45.936 33.78 37.469 31.986 37.46 29.713 Z " fill="rgb(0,0,0)"/><path d=" M 82.02 41.044 C 82.02 33.868 73.028 32.051 73.017 29.713 C 73.017 28.343 73.773 27.998 74.897 27.998 C 75.983 27.998 76.581 28.853 77.141 29.817 L 82.237 27.38 C 81.005 25.115 79.01 23.363 75.268 22.952 L 75.268 19.419 L 71.523 19.419 L 71.523 22.989 C 67.705 23.639 65.529 26.181 65.529 29.029 C 65.529 35.859 74.146 37.098 74.146 40.356 C 74.146 40.601 74.098 40.805 74.021 40.978 L 82 41.464 C 82.007 41.325 82.02 41.188 82.02 41.044 Z " fill="rgb(0,0,0)"/></g></svg>