<?xml version="1.0" standalone="no"?><!-- Generator: Gravit.io --><svg xmlns="http://www.w3.org/2000/svg" xmlns:xlink="http://www.w3.org/1999/xlink" style="isolation:isolate" viewBox="0 0 112 112" width="112" height="112"><defs><clipPath id="_clipPath_LP6esudkGZ1P1PcDImks6tWpaNVmkajA"><rect width="112" height="112"/></clipPath></defs><g clip-path="url(#_clipPath_LP6esudkGZ1P1PcDImks6tWpaNVmkajA)"><g><g><path d=" M 96.157 85.081 C 96.157 86.356 95.12 87.389 93.841 87.389 L 78.695 87.389 C 77.416 87.389 76.379 86.356 76.379 85.081 L 76.379 61.147 C 76.379 59.873 77.416 58.84 78.695 58.84 L 93.841 58.84 C 95.12 58.84 96.157 59.873 96.157 61.147 L 96.157 85.081 Z  M 35.621 85.081 C 35.621 86.356 34.584 87.389 33.305 87.389 L 18.159 87.389 C 16.88 87.389 15.843 86.356 15.843 85.081 L 15.843 61.147 C 15.843 59.873 16.88 58.84 18.159 58.84 L 33.305 58.84 C 34.584 58.84 35.621 59.873 35.621 61.147 L 35.621 85.081 Z  M 105.237 52.037 C 105.103 52.079 104.967 52.116 104.83 52.153 C 104.808 52.159 104.787 52.166 104.765 52.171 C 104.646 52.203 104.527 52.231 104.407 52.26 C 104.344 52.275 104.281 52.289 104.218 52.303 C 104.103 52.329 103.988 52.353 103.872 52.375 C 103.797 52.389 103.723 52.402 103.649 52.415 C 103.494 52.442 103.338 52.467 103.182 52.488 C 103.058 52.505 102.935 52.522 102.811 52.535 C 102.729 52.544 102.647 52.551 102.565 52.558 C 102.44 52.569 102.316 52.579 102.191 52.587 C 102.12 52.591 102.05 52.595 101.979 52.598 C 101.789 52.607 101.598 52.613 101.407 52.613 C 101.401 52.613 101.395 52.613 101.39 52.613 C 101.385 52.613 101.38 52.613 101.376 52.613 C 101.186 52.613 100.997 52.607 100.808 52.599 C 100.747 52.596 100.685 52.593 100.623 52.589 C 100.475 52.581 100.328 52.569 100.181 52.556 C 100.068 52.545 99.954 52.533 99.842 52.519 C 99.752 52.509 99.662 52.498 99.573 52.485 C 99.455 52.469 99.337 52.451 99.219 52.431 C 99.202 52.428 99.186 52.425 99.17 52.422 C 95.736 51.835 92.757 49.911 90.791 47.208 C 90.749 47.151 90.708 47.093 90.668 47.035 C 90.611 46.955 90.554 46.874 90.499 46.792 C 90.412 46.663 90.329 46.533 90.247 46.401 C 90.206 46.335 90.167 46.268 90.127 46.202 C 90.099 46.155 90.07 46.108 90.042 46.06 C 90.015 46.108 89.986 46.154 89.958 46.201 C 89.918 46.268 89.878 46.335 89.837 46.401 C 89.755 46.533 89.672 46.663 89.586 46.792 C 89.53 46.875 89.473 46.955 89.416 47.036 C 89.376 47.094 89.335 47.15 89.294 47.207 C 87.328 49.91 84.349 51.834 80.915 52.422 C 80.898 52.425 80.882 52.428 80.865 52.431 C 80.748 52.451 80.63 52.469 80.511 52.485 C 80.422 52.498 80.332 52.509 80.242 52.519 C 80.13 52.533 80.017 52.545 79.903 52.556 C 79.756 52.569 79.609 52.581 79.461 52.589 C 79.399 52.593 79.338 52.596 79.276 52.599 C 79.087 52.607 78.898 52.613 78.708 52.613 C 78.704 52.613 78.699 52.613 78.695 52.613 C 78.69 52.613 78.686 52.613 78.681 52.613 C 78.491 52.613 78.302 52.607 78.114 52.599 C 78.052 52.596 77.99 52.593 77.928 52.589 C 77.781 52.581 77.633 52.569 77.487 52.556 C 77.373 52.545 77.26 52.533 77.147 52.519 C 77.057 52.509 76.968 52.498 76.879 52.485 C 76.76 52.469 76.642 52.451 76.524 52.431 C 76.508 52.428 76.492 52.425 76.475 52.422 C 73.04 51.835 70.06 49.909 68.094 47.205 C 68.054 47.15 68.015 47.095 67.976 47.04 C 67.918 46.957 67.859 46.875 67.803 46.791 C 67.717 46.663 67.635 46.534 67.554 46.403 C 67.511 46.335 67.471 46.266 67.43 46.197 C 67.403 46.151 67.374 46.106 67.347 46.06 C 67.319 46.109 67.289 46.157 67.26 46.206 C 67.222 46.27 67.183 46.335 67.144 46.399 C 67.061 46.532 66.977 46.664 66.89 46.794 C 66.836 46.874 66.78 46.953 66.724 47.032 C 66.683 47.091 66.64 47.151 66.597 47.21 C 66.531 47.301 66.464 47.391 66.395 47.481 C 66.394 47.483 66.393 47.484 66.391 47.486 C 64.427 50.043 61.535 51.855 58.22 52.422 C 58.204 52.425 58.187 52.428 58.17 52.431 C 58.053 52.451 57.935 52.469 57.817 52.485 C 57.727 52.498 57.638 52.509 57.548 52.519 C 57.435 52.533 57.322 52.545 57.208 52.556 C 57.062 52.569 56.914 52.581 56.766 52.589 C 56.705 52.593 56.643 52.596 56.581 52.599 C 56.393 52.607 56.204 52.613 56.014 52.613 C 56.009 52.613 56.005 52.613 56 52.613 C 55.996 52.613 55.991 52.613 55.987 52.613 C 55.796 52.613 55.608 52.607 55.419 52.599 C 55.357 52.596 55.296 52.593 55.234 52.589 C 55.086 52.581 54.939 52.569 54.792 52.556 C 54.678 52.545 54.565 52.533 54.452 52.519 C 54.363 52.509 54.273 52.498 54.184 52.485 C 54.065 52.469 53.947 52.451 53.829 52.431 C 53.813 52.428 53.797 52.425 53.78 52.422 C 50.345 51.835 47.365 49.909 45.399 47.205 C 45.359 47.15 45.32 47.095 45.281 47.04 C 45.223 46.957 45.164 46.875 45.108 46.791 C 45.023 46.663 44.94 46.534 44.859 46.403 C 44.817 46.335 44.776 46.266 44.735 46.197 C 44.708 46.151 44.679 46.106 44.653 46.06 C 44.624 46.109 44.594 46.157 44.565 46.206 C 44.527 46.27 44.489 46.335 44.449 46.399 C 44.367 46.532 44.282 46.664 44.195 46.794 C 44.141 46.874 44.085 46.953 44.03 47.032 C 43.988 47.091 43.946 47.151 43.903 47.21 C 43.836 47.301 43.769 47.391 43.701 47.481 C 43.699 47.483 43.698 47.484 43.697 47.486 C 41.732 50.043 38.84 51.855 35.526 52.422 C 35.509 52.425 35.493 52.428 35.476 52.431 C 35.358 52.451 35.24 52.469 35.122 52.485 C 35.032 52.498 34.943 52.509 34.853 52.519 C 34.74 52.533 34.627 52.545 34.514 52.556 C 34.367 52.569 34.22 52.581 34.072 52.589 C 34.01 52.593 33.948 52.596 33.886 52.599 C 33.698 52.607 33.509 52.613 33.319 52.613 C 33.314 52.613 33.31 52.613 33.305 52.613 C 33.301 52.613 33.296 52.613 33.292 52.613 C 33.102 52.613 32.913 52.607 32.724 52.599 C 32.662 52.596 32.601 52.593 32.539 52.589 C 32.391 52.581 32.244 52.569 32.097 52.556 C 31.983 52.545 31.87 52.533 31.757 52.519 C 31.668 52.509 31.578 52.498 31.489 52.485 C 31.37 52.469 31.252 52.451 31.135 52.431 C 31.118 52.428 31.102 52.425 31.086 52.422 C 27.651 51.835 24.67 49.909 22.704 47.205 C 22.665 47.15 22.626 47.095 22.586 47.04 C 22.528 46.957 22.47 46.875 22.414 46.791 C 22.328 46.663 22.245 46.534 22.164 46.403 C 22.122 46.335 22.081 46.266 22.04 46.197 C 22.013 46.151 21.985 46.106 21.958 46.06 C 21.93 46.109 21.9 46.157 21.871 46.206 C 21.832 46.27 21.794 46.335 21.754 46.399 C 21.672 46.532 21.587 46.664 21.5 46.794 C 21.446 46.874 21.39 46.953 21.335 47.032 C 21.293 47.091 21.251 47.151 21.208 47.21 C 21.142 47.301 21.075 47.391 21.006 47.481 C 21.005 47.483 21.003 47.484 21.002 47.486 C 19.037 50.043 16.146 51.855 12.831 52.422 C 12.814 52.425 12.798 52.428 12.781 52.431 C 12.664 52.451 12.545 52.469 12.427 52.485 C 12.338 52.498 12.248 52.509 12.158 52.519 C 12.045 52.533 11.933 52.545 11.819 52.556 C 11.672 52.569 11.525 52.581 11.377 52.589 C 11.315 52.593 11.253 52.596 11.192 52.599 C 11.003 52.607 10.814 52.613 10.624 52.613 C 10.62 52.613 10.615 52.613 10.611 52.613 C 10.605 52.613 10.6 52.613 10.594 52.613 C 10.404 52.613 10.213 52.607 10.024 52.599 C 9.954 52.595 9.885 52.591 9.817 52.587 C 9.689 52.58 9.562 52.57 9.435 52.558 C 9.357 52.551 9.28 52.545 9.202 52.537 C 9.033 52.518 8.865 52.497 8.697 52.473 C 8.592 52.457 8.489 52.439 8.386 52.421 C 8.307 52.407 8.228 52.394 8.15 52.379 C 8.039 52.358 7.928 52.335 7.818 52.311 C 7.751 52.297 7.684 52.281 7.617 52.265 C 7.416 52.218 7.216 52.166 7.019 52.11 C 6.958 52.093 6.897 52.077 6.836 52.059 L 6.836 96.6 L 42.337 96.6 L 42.337 61.147 C 42.337 59.873 43.374 58.84 44.653 58.84 L 67.347 58.84 C 68.626 58.84 69.663 59.873 69.663 61.147 L 69.663 96.6 L 105.237 96.6 L 105.237 52.037 Z  M 85.097 13 L 91.382 29.801 L 109.72 29.801 L 99.926 13 L 85.097 13 Z  M 30.744 13 L 24.459 29.801 L 43.224 29.801 L 46.543 13 L 30.744 13 Z  M 50.083 13 L 46.765 29.801 L 65.369 29.801 L 62.051 13 L 50.083 13 Z  M 65.591 13 L 68.91 29.801 L 87.675 29.801 L 81.39 13 L 65.591 13 Z  M 11.852 13 L 2.251 29.801 L 20.752 29.801 L 27.037 13 L 11.852 13 Z  M 10.611 49.152 C 5.311 49.152 1 44.857 1 39.577 L 1 33.262 L 20.221 33.262 L 20.221 39.577 C 20.221 44.857 15.91 49.152 10.611 49.152 Z  M 33.305 49.152 L 33.305 49.152 C 28.006 49.152 23.695 44.857 23.695 39.577 L 23.695 33.262 L 42.916 33.262 L 42.916 39.577 C 42.916 44.857 38.605 49.152 33.305 49.152 Z  M 56 49.152 L 56 49.152 C 50.701 49.152 46.39 44.857 46.39 39.577 L 46.39 33.262 L 65.611 33.262 L 65.611 39.577 C 65.611 44.857 61.299 49.152 56 49.152 Z  M 78.695 49.152 L 78.695 49.152 C 73.395 49.152 69.084 44.857 69.084 39.577 L 69.084 33.262 L 88.305 33.262 L 88.305 39.577 C 88.305 44.857 83.994 49.152 78.695 49.152 Z  M 111 39.577 C 111 44.857 106.689 49.152 101.389 49.152 L 101.389 49.152 C 96.09 49.152 91.779 44.857 91.779 39.577 L 91.779 33.262 L 111 33.262 L 111 39.577 Z  M 60.02 85.689 C 58.741 85.689 57.704 84.656 57.704 83.382 L 57.704 78.749 C 57.704 77.474 58.741 76.441 60.02 76.441 C 61.299 76.441 62.336 77.474 62.336 78.749 L 62.336 83.382 C 62.336 84.656 61.299 85.689 60.02 85.689 L 60.02 85.689 Z  M 46.968 96.6 L 65.032 96.6 L 65.032 63.455 L 46.968 63.455 L 46.968 96.6 Z " fill-rule="evenodd" fill="rgb(0,0,0)"/></g></g></g></svg>