<?xml version="1.0" standalone="no"?><!-- Generator: Gravit.io --><svg xmlns="http://www.w3.org/2000/svg" xmlns:xlink="http://www.w3.org/1999/xlink" style="isolation:isolate" viewBox="0 0 112 112" width="112" height="112"><defs><clipPath id="_clipPath_4Ndj8BKAm4Qd9STfYbkx04udX7tRTnMI"><rect width="112" height="112"/></clipPath></defs><g clip-path="url(#_clipPath_4Ndj8BKAm4Qd9STfYbkx04udX7tRTnMI)"><g><path d=" M 41.432 38.499 C 42.18 37.513 42.214 35.896 41.6 33.923 C 39.283 34.52 37.563 36.606 37.563 39.109 C 37.563 39.383 37.603 39.645 37.643 39.908 C 38.953 39.881 40.593 39.605 41.432 38.499 Z " fill="none"/><path d=" M 28.426 17.967 C 21.596 12.794 14.215 9.577 9.155 9.577 C 7.814 9.577 6.029 9.823 5.144 10.992 C 3.98 12.528 4.524 15.585 6.603 19.166 C 9.009 23.315 13.108 27.703 18.149 31.523 C 21.618 34.151 25.228 36.271 28.605 37.724 L 28.554 31.787 C 28.519 27.828 31.7 24.588 35.658 24.55 C 33.597 22.277 31.157 20.037 28.426 17.967 Z " fill="none"/><path d=" M 45.334 34.319 C 45.83 36.832 45.492 38.998 44.25 40.637 C 43.477 41.656 42.054 42.82 39.56 43.259 C 40.485 44.012 41.653 44.487 42.94 44.487 C 45.909 44.487 48.315 42.079 48.315 39.108 C 48.315 37.006 47.095 35.204 45.334 34.319 Z " fill="none"/><path d=" M 107.766 66.159 L 67.43 26.527 C 66.11 25.151 64.256 24.298 62.197 24.317 L 40.249 24.509 C 37.692 21.266 34.377 18.041 30.563 15.148 C 23.15 9.53 14.948 6.039 9.155 6.039 C 5.273 6.039 3.298 7.571 2.324 8.855 C 0.207 11.646 0.64 15.939 3.541 20.942 C 6.178 25.487 10.607 30.243 16.013 34.342 C 20.161 37.488 24.557 39.963 28.637 41.536 L 28.785 58.324 C 28.803 60.313 29.631 62.104 30.947 63.391 C 30.977 63.435 31.007 63.476 31.043 63.51 L 71.402 103.169 C 74.998 106.699 78.72 104.646 82.244 101.06 L 105.849 77.038 C 109.373 73.449 111.359 69.693 107.766 66.159 Z  M 28.552 31.786 L 28.604 37.723 C 25.227 36.269 21.617 34.15 18.148 31.522 C 13.108 27.701 9.009 23.314 6.602 19.165 C 4.522 15.584 3.979 12.527 5.143 10.991 C 6.028 9.822 7.814 9.576 9.154 9.576 C 14.213 9.576 21.595 12.792 28.424 17.966 C 31.156 20.036 33.596 22.275 35.656 24.549 C 31.699 24.586 28.519 27.827 28.552 31.786 Z  M 37.563 39.108 C 37.563 36.605 39.283 34.519 41.6 33.922 C 42.214 35.895 42.179 37.512 41.432 38.498 C 40.594 39.605 38.954 39.879 37.644 39.907 C 37.603 39.644 37.563 39.382 37.563 39.108 Z  M 42.94 44.487 C 41.653 44.487 40.485 44.012 39.56 43.259 C 42.054 42.82 43.478 41.654 44.25 40.637 C 45.492 38.998 45.83 36.832 45.334 34.319 C 47.095 35.203 48.315 37.006 48.315 39.108 C 48.315 42.078 45.909 44.487 42.94 44.487 Z " fill="rgb(0,0,0)"/></g></g></svg>